<?xml version="1.0" encoding="utf-8"?>
<svg width="13px" height="13px" viewBox="0 0 13 13" version="1.1" xmlns:xlink="http://www.w3.org/1999/xlink" xmlns="http://www.w3.org/2000/svg">
  <desc>Created with Lunacy</desc>
  <g id="Icon/Social/Google">
    <path d="M11.8929 4.80232L6.12678 4.80232C6.12678 5.40198 6.12678 6.60131 6.1231 7.20097L9.46443 7.20097C9.33639 7.80063 8.88242 8.64016 8.24099 9.06292C8.24038 9.06232 8.23977 9.06652 8.23854 9.06592C7.38575 9.629 6.26033 9.75673 5.4247 9.58882C4.11488 9.32857 3.0783 8.37871 2.65741 7.17218C2.65986 7.17039 2.6617 7.15359 2.66354 7.1524C2.40011 6.40402 2.40011 5.40198 2.66354 4.80232L2.66293 4.80232C3.00233 3.70014 4.07016 2.69451 5.38181 2.41926C6.43677 2.19559 7.62713 2.43785 8.50259 3.25699C8.61899 3.14305 10.1138 1.68347 10.2259 1.56474C7.23504 -1.14393 2.44605 -0.19107 0.654089 3.30676L0.653477 3.30676C0.653477 3.30676 0.654089 3.30676 0.650414 3.31336L0.650414 3.31336C-0.236073 5.03139 -0.199315 7.05585 0.65654 8.69173C0.654089 8.69353 0.652251 8.69473 0.650414 8.69653C1.42601 10.2017 2.83753 11.356 4.53821 11.7956C6.34488 12.2693 8.64411 11.9455 10.1843 10.5525C10.1849 10.5531 10.1855 10.5537 10.1861 10.5543C11.491 9.37894 12.3034 7.37667 11.8929 4.80232" transform="translate(0.5 0.5)" id="google" fill="#DBDBDB" stroke="none" />
  </g>
</svg>